<svg xmlns="http://www.w3.org/2000/svg"  viewBox="0 0 64 64" width="64px" height="64px"><path d="M 22.181641 9 C 14.914132 9 9 14.914132 9 22.181641 C 9 22.181641 9.0116719 32.845812 9.0136719 41.826172 C 9.0158325 49.09168 14.928087 55 22.193359 55 L 34 55 A 1.0001 1.0001 0 0 0 35 54 L 35 34 A 1.0001 1.0001 0 0 0 34 33 L 30 33 A 1.0001 1.0001 0 1 0 30 35 L 33 35 L 33 53 L 22.193359 53 C 16.008632 53 11.015511 48.00871 11.013672 41.824219 C 11.011672 32.842578 11 22.179688 11 22.179688 C 11.001076 15.994119 15.995815 11 22.181641 11 L 41.818359 11 C 48.004851 11 53 15.995149 53 22.181641 L 53 41.818359 C 53 48.004851 48.004851 53 41.818359 53 L 41 53 L 41 35 L 45 35 A 1.0001 1.0001 0 0 0 46 34 L 46 28 A 1.0001 1.0001 0 0 0 45 27 L 41 27 L 41 25 L 45 25 A 1.0001 1.0001 0 0 0 46 24 L 46 19 A 1.0001 1.0001 0 0 0 45 18 L 39 18 C 35.698375 18 33 20.698375 33 24 L 33 27 L 30 27 A 1.0001 1.0001 0 1 0 30 29 L 34 29 A 1.0001 1.0001 0 0 0 35 28 L 35 24 C 35 21.779625 36.779625 20 39 20 L 44 20 L 44 23 L 40 23 A 1.0001 1.0001 0 0 0 39 24 L 39 28 A 1.0001 1.0001 0 0 0 40 29 L 44 29 L 44 33 L 40 33 A 1.0001 1.0001 0 0 0 39 34 L 39 54 A 1.0001 1.0001 0 0 0 40 55 L 41.818359 55 C 49.085868 55 55 49.085868 55 41.818359 L 55 22.181641 C 55 14.914132 49.085868 9 41.818359 9 L 22.181641 9 z"/></svg>